name C:\Users\u0101727\Documents\MyRepositories\upper-imu-dc\Results\main_tracking\Case_48\kinematics.mot
datacolumns 10
datarows 23
range 6.30000000 6.52000000
endheader 
time	clav_prot	clav_elev	scapula_abduction	scapula_elevation	scapula_upward_rot	scapula_winging	plane_elv	shoulder_elv	axial_rot	
          6.30000000	        -42.05610704	          9.45409431	         -4.13265448	         -2.21045345	         72.85805713	        -11.97718967	         29.16290052	         88.61612565	          2.09155646	
          6.31000000	        -42.05373036	          9.42696231	         -3.98155497	         -2.21798110	         73.03216836	        -11.95305343	         29.39171062	         88.63633983	          2.05866196	
          6.32000000	        -42.05077127	          9.39985897	         -3.82929213	         -2.22524624	         73.20661819	        -11.92829367	         29.62144182	         88.65396977	          2.02991149	
          6.33000000	        -42.04752867	          9.37293565	         -3.67630664	         -2.23216149	         73.38153391	        -11.90311013	         29.85190278	         88.66897882	          2.00513125	
          6.34000000	        -42.04430901	          9.34633981	         -3.52306854	         -2.23864352	         73.55702156	        -11.87770728	         30.08284808	         88.68135983	          1.98405470	
          6.35000000	        -42.04142388	          9.32021442	         -3.37008301	         -2.24461427	         73.73315346	        -11.85229411	         30.31398798	         88.69114525	          1.96631057	
          6.36000000	        -42.03918555	          9.29469433	         -3.21788968	         -2.25000381	         73.90995846	        -11.82708179	         30.54499601	         88.69841582	          1.95141412	
          6.37000000	        -42.03789982	          9.26989979	         -3.06705373	         -2.25475478	         74.08741581	        -11.80227884	         30.77551381	         88.70330743	          1.93876457	
          6.38000000	        -42.03785642	          9.24592778	         -2.91814888	         -2.25882796	         74.26545304	        -11.77808389	         31.00515358	         88.70601549	          1.92765154	
          6.39000000	        -42.03931819	          9.22284317	         -2.77173482	         -2.26220745	         74.44394838	        -11.75467734	         31.23349998	         88.70679623	          1.91727283	
          6.40000000	        -42.04251105	          9.20067310	         -2.62833343	         -2.26490345	         74.62273739	        -11.73221382	         31.46011363	         88.70596416	          1.90676477	
          6.41000000	        -42.04761672	          9.17940728	         -2.48840827	         -2.26695100	         74.80162310	        -11.71081732	         31.68453782	         88.70388534	          1.89524411	
          6.42000000	        -42.05476899	          9.15900511	         -2.35235096	         -2.26840419	         74.98038757	        -11.69057992	         31.90630811	         88.70096700	          1.88185765	
          6.43000000	        -42.06405351	          9.13940734	         -2.22047563	         -2.26932758	         75.15880219	        -11.67156377	         32.12496349	         88.69764497	          1.86583234	
          6.44000000	        -42.07550990	          9.12054857	         -2.09302011	         -2.26978745	         75.33663454	        -11.65380486	         32.34005666	         88.69437124	          1.84651774	
          6.45000000	        -42.08913439	          9.10236677	         -1.97015043	         -2.26984535	         75.51365146	        -11.63731664	         32.55116194	         88.69160304	          1.82341429	
          6.46000000	        -42.10488221	          9.08480820	         -1.85196477	         -2.26955479	         75.68962031	        -11.62209249	         32.75788025	         88.68979347	          1.79618484	
          6.47000000	        -42.12266907	          9.06782819	         -1.73849392	         -2.26896064	         75.86431162	        -11.60810636	         32.95984105	         88.68938199	          1.76465053	
          6.48000000	        -42.14237238	          9.05138931	         -1.62969774	         -2.26809987	         76.03750529	        -11.59531204	         33.15670251	         88.69078262	          1.72877482	
          6.49000000	        -42.16383318	          9.03545915	         -1.52545933	         -2.26700232	         76.20900102	        -11.58364226	         33.34815213	         88.69436964	          1.68863999	
          6.50000000	        -42.18685911	          9.02000919	         -1.42557985	         -2.26569055	         76.37863076	        -11.57300832	         33.53390997	         88.70046306	          1.64442043	
          6.51000000	        -42.21122849	          9.00501565	         -1.32977707	         -2.26417854	         76.54626945	        -11.56330089	         33.71373543	         88.70931495	          1.59635572	
          6.52000000	        -42.23669597	          8.99046218	         -1.23768974	         -2.26246946	         76.71184263	        -11.55439268	         33.88743622	         88.72109980	          1.54472533	
